<svg preserveAspectRatio="none" overflow="visible" style="display: block;" width="15.0791" height="15.0791" viewBox="0 0 15.0791 15.0791" fill="none" xmlns="http://www.w3.org/2000/svg">
<g id="video-off" clip-path="url(#clip0_3165_64)">
<path id="Vector" d="M6.21496 3.93916H8.31361C8.64691 3.93916 8.96655 4.07156 9.20222 4.30724C9.43789 4.54291 9.57029 4.86256 9.57029 5.19585V6.76671L12.8678 4.84272C12.9156 4.81486 12.9698 4.80009 13.0251 4.7999C13.0804 4.79971 13.1347 4.81412 13.1827 4.84165C13.2306 4.86919 13.2704 4.90888 13.2981 4.95673C13.3258 5.00458 13.3403 5.05889 13.3403 5.11417V10.2641M9.5702 10.2226C9.5702 10.5559 9.4378 10.8755 9.20212 11.1112C8.96645 11.3469 8.64681 11.4793 8.31352 11.4793H2.03012C1.69683 11.4793 1.37718 11.3469 1.14151 11.1112C0.905837 10.8755 0.773438 10.5559 0.773438 10.2226V5.19585C0.773437 4.86256 0.905837 4.54291 1.14151 4.30724C1.37718 4.07156 1.69683 3.93916 2.03012 3.93916H3.2868M0.773438 1.42578L13.3402 13.9927" stroke="white" stroke-width="1.67545" stroke-linecap="round"/>
</g>
<defs>
<clipPath id="clip0_3165_64">
<rect width="15.0791" height="15.0791" fill="white"/>
</clipPath>
</defs>
</svg>
